<svg xmlns="http://www.w3.org/2000/svg" width="118" height="118" viewBox="0 0 118 118">
  <g fill="none" fill-rule="evenodd" transform="translate(1 1)">
    <circle cx="58" cy="58" r="58" fill="#FFF" fill-rule="nonzero" stroke="#000"/>
    <path fill="#000" fill-rule="nonzero" d="M70.8,56.4 C71.7,55.3 71.8,53.8 72.8,52.7 L72.8,53.2 C72.8,53.6 72.7,54.1 72.6,54.5 C72.6,54.6 72.7,54.7 72.8,54.8 C72.9,54.7 73,54.7 73,54.6 C73.1,54.3 73.1,54 73.1,53.8 C73.2,53.4 73.2,52.9 73.3,52.4 C73.4,52.6 73.4,52.7 73.5,52.7 C73.7,53 73.9,53.3 74.1,53.6 C74.2,53.7 74.5,53.7 74.5,53.6 C74.7,53.4 74.4,53.4 74.3,53.3 C74,53 73.9,52.5 73.7,52 L73.8,52 C74.1,52.4 74.3,52.9 74.6,53.3 L74.7,53.3 L74.7,52.9 C74.6,52.5 74.7,52.4 75.1,52.5 C75.2,52.5 75.3,52.5 75.4,52.6 C76.2,52.8 77.1,52.9 78,52.8 C79.5,52.7 80.3,51.7 80.9,50.5 C81.2,49.9 81.2,49.2 81.3,48.5 L81.3,48.1 L80.8,48.1 C80.6,48.1 80.4,48.2 80.2,48.2 C79.7,48 79.5,47.5 79.3,47.1 C79,46.4 78.9,45.8 78.6,45.1 C78.4,44.6 78.2,44.2 78.2,43.7 C78.2,43.3 78,43.2 77.7,43.2 C77.3,43.3 76.9,43.3 76.5,43.4 C76,43.5 75.6,43.6 75.1,43.4 C74.8,43.3 74.6,43.2 74.3,43.2 C73.6,43.2 73,43.3 72.6,43.9 C72.2,43.3 71.8,42.8 71.4,42.3 C71.3,42.2 71.1,42.1 71,42 C70.9,42.2 70.8,42.3 70.8,42.5 C70.9,43.7 70.7,44.8 70.4,46 C70.2,46.7 70.1,47.5 70.1,48.3 C70.1,48.7 70.2,49.1 70.4,49.5 C70.7,50.3 71.2,50.9 72,51.3 C72.1,51.4 72.3,51.4 72.4,51.4 C72.4,51.4 72.4,51.3 72.5,51.3 C72.4,51.2 72.3,51 72.1,50.9 C71.5,50.5 71.1,50 70.8,49.4 C70.5,48.6 70.5,47.9 70.6,47.1 C70.8,46.2 71,45.2 71.2,44.3 C71.2,44.1 71.2,43.8 71.3,43.6 L71.4,43.6 C71.5,43.8 71.7,44 71.8,44.3 C72.2,44.9 72.7,45.5 73,46.2 C73.3,46.9 73.4,47.6 73.6,48.4 C73.8,49.1 73.7,49.8 73.6,50.5 C73.6,50.6 73.5,50.6 73.4,50.7 C73.3,49.6 73,48.7 72.6,47.7 C72.5,47.9 72.5,48.1 72.5,48.2 C72.6,48.7 72.8,49.3 72.9,49.8 C73,50.2 73.1,50.6 73,51 C72.9,51.3 72.6,51.5 72.4,51.7 C71.9,52 71.4,52.3 70.9,52.6 C70.5,52.9 70,53.1 69.6,53.3 C69.5,53.3 69.5,53.5 69.4,53.6 C69.5,53.6 69.6,53.7 69.7,53.7 C69.8,53.7 69.9,53.6 70,53.6 C70.4,53.4 70.7,53.1 71.1,52.9 C71.5,52.6 72,52.4 72.4,52.1 L72.5,52.2 C72.4,52.5 72.3,52.7 72.2,53 C71.9,53.6 71.5,54.2 71.2,54.9 C71,55.2 71,55.6 70.8,55.9 C70.5,56.5 70.1,57 69.7,57.6 C69.6,57.8 69.5,58 69.3,58.3 C69.2,58.1 69.2,58.1 69.2,58 C69.1,57.1 69.1,56.2 69,55.3 L69,54.1 C69,54 68.9,53.9 68.8,53.8 C68.7,53.9 68.6,53.9 68.5,54 C68,54.5 67.9,55.2 68,55.9 C68.1,56.8 68,57.6 68.4,58.5 C68.5,58.7 68.6,59 68.7,59.3 C68.2,60.1 67.6,60.9 67.1,61.7 C66.8,62.1 66.5,62.5 66.2,62.8 C65.8,63.2 65.4,63.5 65.1,63.9 C64.6,64.4 64,64.9 63.5,65.3 C63.9,64.5 63.7,63.9 63.4,63.1 C63.1,62.5 63.3,62.3 63.8,61.9 C64.5,61.4 64.8,60.9 64.1,60.2 C63.5,60.5 62.9,60.8 62.2,61.1 C62.3,60.7 62.4,60.4 62.4,60.1 C62.4,59.8 62.6,59.6 62.9,59.6 C64.1,59.4 65,58.7 65.5,57.6 C65.6,57.5 65.5,57.3 65.5,57.2 C65.5,57.1 65.2,57.1 65.1,57.1 C64.4,57.4 63.8,57.7 63.1,58 C63.1,58 63.1,58 63,58 C63.3,57.4 63.7,56.9 64,56.3 C64.6,56.7 65.1,56.6 65.7,56.2 C66,56 66.4,55.8 66.7,55.5 C67,55.3 67.3,55 67.3,54.5 C67.3,54.4 67.3,54.4 67.4,54.3 C67.6,53.9 67.5,53.7 67.1,53.7 C66.8,53.7 66.4,53.9 66.1,54 C66,54 65.9,54.1 65.8,54.1 C65.8,53.7 66.1,53.3 66.2,52.9 C66.3,52.5 66.2,52.3 66.5,52 C66.8,51.7 67.3,51.6 67.7,51.3 C68,51 68.5,50.5 68.7,50.1 C68.8,49.8 68.7,49.1 68.2,49.5 C67.9,49.7 67.6,50 67.3,50.2 C67.1,50.3 66.9,50.5 66.7,50.6 C66.7,50.6 66.6,50.6 66.6,50.5 C66.8,49.7 66.5,49 66.7,48.2 L66.7,48 C66.6,47.3 66.5,46.6 66.4,46 C66.3,45.5 66.2,44.9 65.8,44.6 C65.6,44.5 65.4,44.3 65.3,44.6 C65.2,44.9 65,45.3 65.1,45.6 C65.1,46.1 65.2,46.8 65.4,47.2 C65.6,47.7 66.1,47.9 66.2,48.5 C66.3,49.1 66.2,49.9 66.3,50.5 C66.3,50.5 66.3,50.5 66.2,50.5 C66.2,50.5 66.2,50.5 66.2,50.4 L66.2,50.2 C66.2,49.5 65.9,49 65.3,48.6 C65.2,48.5 64.9,48.4 64.9,48.5 C64.8,48.6 64.7,48.8 64.7,49 C64.6,49.6 64.8,50.2 65,50.7 C65.3,51.3 66.4,51.6 66.2,52.2 C66.1,52.6 65.9,52.9 65.7,53.3 C65.4,53.8 65.1,54.3 64.7,55 C64.5,54.5 64.3,54.1 64.3,53.8 C64.3,53.2 63.9,52.8 63.6,52.4 C63.5,52.3 63.3,52.2 63.2,52.2 C63.1,52.3 62.9,52.5 62.9,52.6 C62.8,53 62.8,53.4 62.7,53.8 L62.7,54.2 C62.8,54.9 63.2,55.4 63.7,55.9 C63.8,56 63.9,56.1 63.8,56.3 C63.5,56.8 63.2,57.4 62.9,57.9 C62.9,58 62.8,58 62.7,58.1 L62.7,57.9 C62.7,57.3 62.6,56.7 62.1,56.2 C61.3,55.4 61,57.2 61.1,57.6 C61.1,58.2 61.3,58.7 61.8,59.1 C62.5,59.7 62.5,59.7 62.3,60.5 C62.3,60.7 62.2,60.9 62.2,61 C62.1,61.2 62.1,61.4 62,61.5 C61.7,60.9 61.4,60.4 61.1,59.8 C61,59.7 60.9,59.5 60.8,59.5 C60.7,59.5 60.5,59.7 60.4,59.8 C60.1,60.9 60.9,62 61.6,62.8 C62.2,63.5 61.3,64.6 61.5,65.4 C61.2,64.5 60.9,63.7 60.6,62.9 C60.5,62.7 60.4,62.5 60.2,62.6 C60.1,62.7 60,62.9 60,63.1 L60,64.6 C59.8,64.2 59.5,63.8 59.3,63.5 C59.1,63 58.9,62.5 58.6,62 C58.4,61.5 58.4,61.2 58.7,60.9 C59.2,60.5 59.3,60 59.4,59.4 C59.5,58.6 59.4,57.8 59.4,57.1 C59.4,56.9 59.2,56.7 59.1,56.6 C58.9,56.5 58.7,56.6 58.5,56.9 C58.3,57.3 58.1,57.7 57.9,58.1 C57.7,58.7 57.6,59.3 57.5,59.9 C57.4,59.6 57.3,59.4 57.2,59.2 C56.8,58.2 56.3,57.3 55.9,56.3 C55.6,55.6 55.3,55 55.1,54.3 C54.8,53.6 55.6,53 55.8,52.4 C55.9,52.1 56,51.7 56,51.4 C56.1,50.9 56.2,50.3 56.2,49.7 C56.2,49.1 56,49.4 55.7,49.7 C54.8,50.5 54.4,51.6 54.3,52.8 C54.1,52.4 53.8,52 53.6,51.6 C53.1,50.6 52.7,49.6 52.2,48.6 C52,48.1 51.9,48.1 52.4,47.7 C52.4,47.7 52.5,47.7 52.5,47.6 C53.5,46.9 53.8,46 53.6,44.8 C53.5,44.3 53.4,43.7 53.7,43.2 L53.7,42.9 C53.4,42.8 53.3,43 53.2,43.2 C52.6,44.2 52,45.2 51.3,46.2 C50.9,45.2 50.6,44.2 50.2,43.2 C51.2,42.8 51.8,42.2 51.9,41.1 C52,40.3 52,39.6 51.8,38.9 C51.8,38.8 51.6,38.7 51.6,38.5 C51.5,38.6 51.4,38.8 51.3,38.9 C51.2,39 51.3,39.2 51.2,39.3 C50.9,39.8 50.5,40.3 50.2,40.8 C50.1,41 49.9,41.2 49.7,41.4 C49.4,40 49.2,38.6 49,37.3 C49.1,37.2 49.2,37.2 49.3,37.2 C49.8,36.7 50.4,36.2 50.8,35.6 C51.1,35.3 51.4,34.9 51.5,34.5 C51.6,34.3 51.6,33.9 51.6,33.7 C51.5,33.4 51.3,33.3 51,33.5 C50.8,33.7 50.5,33.8 50.4,34.1 C49.9,34.9 49.5,35.7 49.1,36.5 C49,36.6 49,36.7 48.9,36.8 C48.8,36.2 48.7,35.6 48.6,34.9 C48.5,33.8 48.7,32.8 48.9,31.8 C49,31.3 49.1,30.7 49.7,30.4 C49.9,30.3 50.1,30.2 50.4,30.3 C51.2,30.6 52,30.6 52.8,30.3 C53.6,30.1 54.2,29.7 54.4,28.8 C54.5,28.2 54.7,27.6 55.5,27.5 C55.6,27.5 55.6,27.5 55.7,27.4 C56.3,27 56.8,26.5 56.8,25.6 C56.8,25.2 56.5,24.8 56.2,24.8 C55.6,24.9 55.4,24.7 55.2,24.2 C55.2,24.1 55.1,24 55,23.8 C54.8,23.4 54.6,23 54.6,22.6 C54.5,22 54.3,21.8 53.8,22.2 C53.4,22.5 53,22.5 52.7,22.4 C52.4,22.3 52,22.1 51.7,22 C51.6,21.9 51.4,21.9 51.2,21.9 C50.7,22.1 50.2,22.2 49.9,22.7 C49.8,22.8 49.7,22.9 49.7,23 C49.4,22.8 49.2,22.5 48.9,22.3 C48.8,22.2 48.6,22.2 48.6,22.2 C48.5,22.3 48.5,22.4 48.5,22.5 L48.5,22.9 C48.5,23 48.5,23.1 48.4,23.2 C48.1,23 47.9,22.9 47.7,22.7 C47.3,22.5 47,22.3 46.6,22 C46.5,21.9 46.3,21.9 46.3,21.9 C46.2,22 46.2,22.1 46.2,22.2 L46.2,22.7 C45.8,23.5 45.8,24.3 45.9,25.2 C45.9,25.5 46,25.9 46.2,26.1 C46.5,26.4 46.5,26.6 46.4,27 C46.2,27.7 46.3,28.3 46.8,28.7 C47.2,29 47.6,29.2 48,29.4 C48.5,29.6 48.8,30.4 48.7,30.9 C48.5,31.8 48.4,32.7 48.2,33.7 C48.2,34 48.2,34.2 48.1,34.5 C47.8,33.9 47.6,33.4 47.3,32.9 C47.1,32.6 46.7,32.4 46.4,32.2 C46.3,32.1 46.1,32.2 45.9,32.3 C45.5,32.6 45.5,32.9 45.8,33.4 C46.3,34 46.8,34.7 47.5,35 C47.6,35.1 47.7,35.2 47.9,35.3 C48,35.4 48.1,35.4 48.2,35.5 C48.5,37.4 48.8,39.4 49.2,41.3 L49.1,41.4 C48.8,41 48.4,40.7 48.2,40.3 C47.9,39.7 47.7,39.1 47.2,38.6 C47.1,38.4 46.8,38.3 46.6,38.3 C46.5,38.3 46.4,38.5 46.3,38.6 C46.1,39.2 46.8,40.6 47.4,40.8 C47.8,40.9 48,41 48.3,41.3 C48.6,41.6 48.9,41.9 49.3,41.8 C50.5,45.7 51.9,49.6 53.9,53.1 C53.7,53.1 53.6,53 53.5,52.9 C53.2,52.7 52.9,52.5 52.6,52.4 C52.1,52.2 52,52 52,51.5 C52,50.8 51.9,50.2 51.8,49.5 C51.8,49.2 51.6,49.1 51.3,49.2 C51,49.3 51,49.5 51,49.7 C51,50.4 51.1,51 51.1,51.7 C51,51.5 50.8,51.4 50.6,51.2 C50.1,50.8 50,50.4 50.1,49.7 C50.2,48.8 50.1,48 50,47.1 C50,47 49.9,46.9 49.8,46.9 L49.6,47 C49.4,47.4 49.2,47.7 49.2,48.1 C49.1,48.6 49.2,49.2 49.2,49.7 C48.3,49.4 48,48.7 47.6,48 C47.7,47.8 47.8,47.7 47.9,47.6 C48.1,47.2 48.2,46.8 48.3,46.4 C48.5,45.7 48.7,45.1 48.3,44.4 C48.2,44.3 48,44.1 48,44.2 C47.8,44.4 47.6,44.5 47.5,44.7 C47.3,45.3 47.1,45.9 46.9,46.5 C46.8,46.4 46.5,46.4 46.4,46.3 C46.1,46 45.9,45.7 45.7,45.4 C45.6,45.3 45.6,45 45.6,44.9 C45.8,44.2 46.1,43.6 46.3,42.9 C46.5,42.3 46.7,41.8 46.2,41.2 C46,41 45.8,40.9 45.6,41.2 C45.4,41.6 45.3,42 45.2,42.4 C45.1,42.8 45,43.2 44.9,43.8 C44.7,43.5 44.7,43.3 44.5,43.1 C44.2,42.6 43.9,42.1 43.7,41.6 C43.6,41.4 43.6,41.3 43.8,41.1 C44.3,40.5 44.6,39.9 44.7,39.1 C44.7,38.7 44.6,38.2 44.6,37.8 C44.6,37.7 44.4,37.6 44.3,37.6 C44.2,37.6 44,37.7 44,37.8 C43.8,38 43.7,38.3 43.6,38.6 C43.4,39.1 43.2,39.7 43,40.3 C42.7,39.5 42.5,38.8 42.2,38.1 L42.2,38 L43.2,37 C43.7,36.6 44.6,35.3 44,34.6 C43.7,34.3 43.3,34.7 43.2,34.9 C42.7,35.5 42.2,36.5 41.5,36.8 C41.4,36.5 41.6,35.8 41.6,35.5 C41.6,35 41.6,34.5 41.5,34.1 C41.5,33.5 41.4,32.8 40.8,32.4 C40.5,32.2 40.1,32.1 39.8,32.2 C39.5,32.3 39.5,32.7 39.5,33 L39.5,33.2 C39.8,33.7 40,34.3 40.3,34.8 C40.6,35.3 40.8,36.9 41.2,36.9 C41.2,36.9 41.2,37 41.3,37.2 C41,37 40.8,36.9 40.6,36.8 C40.3,36.7 40,36.5 39.7,36.5 C39.3,36.5 39,36.5 38.6,36.6 C38.3,36.6 38.1,36.9 38.2,37.2 C38.3,37.7 38.8,38.1 39.4,38.1 C40,38.1 41.7,38.5 41.9,38.5 C42.2,39.2 42.4,40 42.7,40.7 L42.6,40.8 C42.4,40.7 42.2,40.6 42.1,40.5 C41.4,40.1 40.7,39.8 39.9,39.8 C39.5,39.8 39.3,40.1 39.1,40.4 C39.1,40.4 39.2,40.6 39.3,40.7 C39.4,40.8 39.6,40.8 39.6,40.9 C39.9,41.2 40.3,41.4 40.7,41.6 C41.5,41.9 42.2,42 43,41.8 C43.2,41.8 43.3,41.8 43.4,42 C43.7,42.5 44,42.9 44.2,43.4 C44.4,43.8 44.6,44.2 44.7,44.6 C44.6,44.6 44.6,44.7 44.5,44.7 C44.5,44.6 44.4,44.6 44.4,44.5 C44.3,44.4 44.3,44.2 44.2,44.2 C43.2,43.7 42.2,43.5 41.2,43.9 C41.1,43.9 41.1,44 41,44 C40.8,44.3 41,44.7 41.4,44.7 C42.5,44.9 43.5,45 44.6,45.1 C44.7,45.1 44.9,45.2 45,45.3 C45.3,45.6 45.5,46 45.7,46.3 C45.8,46.4 45.8,46.5 46,46.7 L45.4,46.7 C44.9,46.7 44.4,46.8 44,47.1 C43.7,47.3 43.3,47.5 43.5,47.9 C43.6,48.2 44,48.3 44.4,48.3 C45.1,48.2 45.9,48.1 46.6,48.1 C46.8,48.1 47,48.2 47.1,48.3 C47.5,48.8 47.8,49.3 48.1,49.8 L47.4,49.8 C46.8,49.9 46.3,50.1 45.7,50.2 C45.4,50.3 45.2,50.6 45.3,51 C45.4,51.3 45.6,51.2 45.8,51.2 C46,51.2 46.1,51.3 46.3,51.3 C46.7,51.3 47.1,51.4 47.4,51.3 C47.8,51.3 48.1,51.2 48.5,51.1 C48.8,51.1 49,51 49.1,50.6 C49.6,51 50.1,51.4 50.6,51.8 C50.2,52 49.9,52.2 49.6,52.4 C49.3,52.6 49.4,53 49.5,53.2 C49.6,53.3 49.8,53.4 49.9,53.4 C50.5,53.2 51.1,53 51.6,52.9 C51.8,52.9 52,52.8 52.1,52.9 C52.6,53.1 53,53.4 53.4,53.6 C54.1,53.9 54.4,54.4 54.6,55 C54.6,55.2 54.7,55.3 54.8,55.5 C54.6,55.4 54.4,55.3 54.3,55.2 C54.1,55.1 54,55 53.8,54.9 C53.5,54.8 53.3,54.9 53.1,55.1 C53,55.3 53,55.6 53.2,55.8 C53.9,56.3 54.5,56.9 55.2,57.4 C55.5,57.6 55.8,57.8 56,58.1 C56.5,59.2 57.1,60.2 57.6,61.3 C57.8,61.7 58,62.1 58.2,62.6 C58,62.5 57.9,62.5 57.8,62.4 C56.9,61.6 55.7,61.3 54.6,60.9 C54.5,60.9 54.3,60.9 54.2,61 C54.2,61.2 54.2,61.3 54.3,61.5 C54.6,61.8 54.9,62.1 55.1,62.4 C55.8,63.4 56.8,63.9 57.9,64.5 C58.1,64.6 58.5,64.8 58.7,64.5 C58.8,64.7 58.8,64.8 58.9,64.9 C59.2,65.9 59.4,66.9 59.6,68 C59.6,68.1 59.6,68.3 59.5,68.4 C59.3,68.7 59,68.9 58.7,69.1 C58.2,69.6 57.7,70 57.2,70.5 C56.6,71 56.1,71.6 55.5,72.1 C55.4,71.1 55.3,70.2 55.2,69.3 C55.2,68.9 55.4,67.7 54.6,68.4 C54.1,68.9 54,70.2 53.9,70.8 C53.8,71.9 53.5,72.9 53.4,74 C53.4,74.3 53.4,74.6 53.7,74.8 C52.9,76.2 52.2,77.6 52,79.3 C51.7,78.8 51.4,78.4 51.2,77.9 C50.9,77.4 50.6,76.8 50.3,76.3 C50.2,76.2 50.1,76.1 50,76.1 C49.9,76.1 49.8,76.2 49.8,76.4 C49.8,76.5 49.9,76.6 49.9,76.7 C50,77.1 50.2,77.5 50.2,77.8 C50.1,79.6 50.7,81.1 52,82.4 C52.1,82.5 52.3,82.7 52.3,82.8 C52.5,83.5 52.7,84.2 53,85 C53.1,85.4 53.3,85.8 53.5,86.1 C53.9,86.9 54.4,87.7 54.9,88.5 C55,88.6 55.1,88.7 55.2,88.8 C54.8,89.7 54.4,90.5 54.2,91.5 C54,92.7 54,93.9 54.7,94.9 C54.8,95 54.8,95.1 54.9,95.2 C55,95.3 55.1,95.3 55.2,95.4 C55.2,95.3 55.3,95.2 55.3,95.1 C55.3,95 55.2,94.9 55.1,94.8 C54.7,94.1 54.4,93.4 54.5,92.6 C54.6,91.3 54.9,90.1 55.6,88.9 C56.1,88.1 56.6,87.3 57.1,86.4 C57.3,86 57.6,85.6 57.8,85.2 C57.8,85.1 57.9,85 58,85 C58.6,84.9 59.1,84.7 59.4,84.2 C59.9,83.3 60.5,82.5 61,81.6 C61.1,81.5 61,81.3 61,81.1 C60.8,81.2 60.6,81.2 60.5,81.3 C60,82.1 59.2,82.5 58.6,83.2 L58.6,82.8 C59.1,81.4 59.5,80 60,78.6 C60.2,77.9 60.4,77.2 60.7,76.5 C60.7,76.4 60.8,76.2 60.9,76.1 C61.5,75.7 62.2,75.6 62.5,74.8 C62.7,74.3 63,73.8 63.2,73.3 C63.4,72.8 63.4,72.2 63.5,71.7 C63.5,71.6 63.4,71.5 63.3,71.4 L63,71.7 C62.9,71.9 62.9,72.1 62.8,72.3 C62.3,73 61.7,73.7 61.2,74.3 C61.2,72.4 60.9,70.7 60.6,68.8 C60.6,68.7 60.6,68.5 60.7,68.4 C61.4,67.8 62.1,67.2 62.7,66.6 C63.3,66.1 63.8,65.5 64.3,65 C64.4,64.9 64.5,64.9 64.6,64.8 C64.6,64.9 64.6,65.1 64.7,65.3 L64.7,65.4 L64.7,65.3 C64.8,65.6 64.9,65.8 65.3,65.8 C65.6,65.8 65.9,65.6 66.2,65.6 C66.9,65.4 67.5,65 68,64.5 C68.3,64.1 68.7,63.8 69.1,63.4 C69.2,63.3 69.1,63.2 69.2,63 L68.9,63 L68.6,63 C68.1,63.1 67.6,63.1 67.2,63.2 C66.9,63.2 66.7,63.3 66.5,63.4 C66.6,63.2 66.6,63.1 66.8,63.1 C67.3,62.9 67.6,62.4 67.8,62 C67.8,61.9 67.9,61.9 68,61.8 C68.6,60.9 69.3,60 69.9,59 C70.2,58.6 70.5,58.2 71.1,58.2 C71.4,58.2 71.6,58.1 71.9,58 C72.4,57.8 72.8,57.5 73.3,57.3 C73.7,57.1 73.9,56.7 73.9,56.3 C73.9,54.7 71.7,56.6 71.4,56.9 C71.6,56.3 72.3,55.8 72.9,55.8 C72.6,56 72.3,56.2 72,56.4 C71.7,56.6 71.6,57 71.3,57.1 C71.7,56.8 72.3,56.1 72.8,56 L70.8,56.4 Z M51.1,33.9 C51.2,34.3 50.3,35.8 49.7,36 C50.1,35.3 50.2,34.3 51.1,33.9 Z M55.6,25.4 C55.7,25.4 55.8,25.4 55.9,25.5 L56.1,25.5 C56.1,25.6 56.2,25.7 56.2,25.8 C56.4,26.2 56.2,26.7 55.8,26.8 C55.6,26.9 55.5,27 55.3,27 C54.9,27.1 54.3,27.6 54.2,28 C54.1,28.3 54,28.6 53.9,28.9 C53.8,29.3 53.5,29.6 53,29.6 C52.7,29.6 52.4,29.7 52.1,29.8 C51.7,29.9 51.4,29.8 51.1,29.7 C52.2,29.7 52.9,28.9 53.8,28.4 L53.9,28.3 L53.9,28.1 C52.9,28.5 52.2,29.5 51,29.3 C51.3,29.4 52.3,28.4 52.6,28.2 C53.6,27.5 54.1,26.5 55,25.7 C55.1,25.6 55.3,25.4 55.6,25.4 Z M51.7,28.4 C51.8,28.1 51.8,27.8 51.9,27.4 C52,27 52,26.6 52.1,26.2 C52.2,25.7 52.7,25.6 53.2,25.3 C53.3,25.5 53.4,25.6 53.4,25.8 C53.5,26 53.5,26.2 53.6,26.4 C53.6,26.5 53.6,26.7 53.5,26.7 C52.9,27.4 52.3,27.9 51.7,28.4 C51.7,28.4 51.6,28.4 51.7,28.4 Z M50.5,22.9 C50.9,22.7 51.3,22.5 51.8,22.8 C52.8,23.3 52.9,23.3 53.9,22.9 C54.2,23.6 54.5,24.2 54.8,24.8 C54.9,25 54.9,25.2 54.7,25.3 C54.4,25.5 54.2,25.8 53.9,26 C53.8,25.8 53.7,25.5 53.6,25.2 C53.4,24.8 53.1,24.8 52.8,25 C52.3,25.3 51.8,25.5 51.6,26.2 C51.5,26 51.4,25.8 51.3,25.7 C50.9,25.1 50.6,24.4 50.2,23.8 C50.1,23.3 50.1,23.1 50.5,22.9 Z M46.6,26.1 C46.3,25.6 46.2,25 46.2,24.5 C46.2,24 46.4,23.5 46.5,23 C46.5,22.9 46.8,22.8 46.8,22.9 C47.2,23.1 47.5,23.3 47.9,23.6 C48.1,23.7 48.1,23.9 47.9,24 C47.5,24.7 46.9,25.2 46.6,26.1 Z M48.9,25.6 C49,25.3 48.7,25.2 48.5,25.1 C48.4,25.3 48.3,25.5 48.3,25.8 L48.3,27.8 C48.3,27.9 48.4,28 48.5,28.1 C48.6,28.5 48.7,28.8 48.8,29.2 C48.8,29.2 48.6,29.4 48.5,29.3 C48,29 47.3,28.9 47,28.3 C46.9,28.1 46.8,27.8 46.8,27.5 C46.9,26.4 47.2,25.5 48,24.7 C48.2,24.5 48.4,24.4 48.6,24.2 C48.7,24.1 48.7,24.1 48.7,24 C48.8,23.7 48.8,23.4 48.9,23.1 L49,23.1 C49.3,23.6 49.7,24 50,24.6 C50.4,25.3 50.8,26.1 51.1,26.8 C51.4,27.6 51.2,28.3 50.7,29 C50.6,29.2 50.4,29.3 50.2,29.4 L50,29.4 L50,29.2 C50.1,28.7 50.3,28.1 50.4,27.6 C50.4,27.5 50.4,27.4 50.3,27.3 C49.9,27.9 49.8,28.5 49.6,29.1 C49.4,29.1 49.3,29 49.1,29 C48.8,29 48.8,28.9 48.7,28.7 C48.8,27.6 48.6,26.6 48.9,25.6 Z M47.7,34.8 C47.1,34.4 46.5,33.9 46.1,33.2 L46.1,32.9 L46.4,32.9 C46.7,33.1 47.1,33.4 47.2,33.8 C47.4,34.1 47.7,34.4 47.7,34.8 C47.8,34.7 47.8,34.8 47.7,34.8 Z M46.9,39.2 C46.9,39.1 46.9,39.1 46.9,39.2 C47.2,39.6 47.5,40 47.8,40.5 C47.2,40.4 46.9,39.7 46.9,39.2 Z M50,41.6 C50.4,41.2 50.7,40.7 51.1,40.3 C51.2,40.1 51.3,39.9 51.4,39.6 C51.6,40.4 51.6,41.2 51.1,41.9 C50.9,42.2 50.5,42.4 50.2,42.6 L50,42.6 C49.8,42.3 49.8,41.8 50,41.6 Z M51.6,45.9 C52,45.3 52.4,44.7 52.8,44.1 L52.9,44 C53.1,44.8 53.1,45.5 52.9,46.2 C52.9,46.3 52.8,46.4 52.8,46.4 C52.4,46.7 52.1,47 51.7,47.3 C51.4,46.8 51.3,46.4 51.6,45.9 Z M54.4,52.9 C54.3,52.2 54.7,50.6 55.4,49.9 C55.4,50.9 55.4,51.9 54.7,52.7 C54.6,52.8 54.5,52.9 54.4,52.9 Z M53.6,55.4 C53.7,55.4 53.7,55.3 53.6,55.4 C54.5,55.7 55.2,56.2 55.5,57.1 C54.9,56.5 54.3,56 53.6,55.4 Z M58.6,56.7 C58.7,57.6 58.9,58.5 58.6,59.4 C58.5,59.8 58.1,60.1 57.9,60.5 C57.4,59.4 57.9,57.1 58.6,56.7 Z M55.3,61.5 C55.9,61.8 56.6,62.1 57.2,62.4 C57.6,62.6 57.9,62.9 58.3,63.1 C58.6,63.3 58.8,63.6 58.9,64.1 C57.3,63.6 56.1,62.8 55.3,61.5 Z M52,81.4 C51.3,80.3 50.7,79.3 50.9,78 C51.6,78.4 52.3,80.4 52,81.4 Z M62.6,72.7 C62.8,73.3 61.8,75 61.3,75 C61.3,74.1 62.2,73.6 62.6,72.7 Z M54.9,69.8 C54.9,70.5 55.4,71.1 55.2,71.9 C55.1,72.4 55,72.8 54.6,73.2 C54.5,73.3 54.5,73.4 54.5,73.4 C54.6,73.8 54.2,74.1 54.1,74.4 C54,72.8 54.5,71.3 54.9,69.8 Z M59.8,82.5 C59.3,83.1 59,83.9 58.3,84.3 C58.7,83.5 59.1,82.9 59.8,82.5 Z M60.8,73.1 C60.7,74.3 60.5,75.6 60.2,76.7 C59.8,78 59.3,79.3 58.9,80.6 C58.9,80.6 58.9,80.7 58.8,80.8 C58.8,80.4 58.7,80 58.7,79.7 C58.7,79 58.4,78.3 58.1,77.6 C58,77.4 57.9,77.1 57.8,76.8 C57.8,76.7 57.6,76.6 57.5,76.6 C57.4,76.6 57.3,76.8 57.3,76.9 C57.3,77.5 57.3,78.1 57.2,78.7 C57.1,79.7 57.5,80.7 57.7,81.6 C57.8,81.9 58,82.1 58.2,82.5 C57.9,84.6 56.6,86.3 55.5,88.2 C55.2,87.6 54.9,87.1 54.6,86.6 C54.6,86.6 54.6,86.5 54.5,86.5 C54,86 54.2,85.6 54.5,85.1 C54.8,84.5 55,83.9 55.2,83.3 C55.3,83 55.5,82.8 55.6,82.5 C55.7,82 55.8,81.5 55.8,81 C55.8,80.7 55.5,80.6 55.2,80.8 C54.7,81.1 54.6,81.7 54.4,82.2 C54.1,83 53.9,83.8 53.6,84.7 C53.5,84.5 53.4,84.3 53.3,84.1 C52.9,83 52.6,81.8 52.6,80.6 C52.6,79.7 52.8,78.8 53,78 C53.3,76.7 53.9,75.6 54.6,74.4 C55.1,73.5 55.7,72.7 56.4,72 C57.1,71.2 57.9,70.5 58.7,69.8 L58.9,69.6 C58.9,70.3 59,71.1 59.5,71.7 C59.7,71.9 60,72 60.2,72.2 C60.7,72.3 60.8,72.7 60.8,73.1 Z M58.2,81.2 C57.8,80.8 57.5,78.8 57.8,78.1 C58.1,79.2 58.2,80.2 58.2,81.2 Z M55.3,81.4 L55.4,81.4 C55,82.5 54.6,83.7 54.2,84.8 C54.2,84.1 54.9,81.7 55.3,81.4 Z M59.5,70 C59.5,70 59.6,70 59.6,69.9 C59.9,70.4 60.3,70.9 60.6,71.5 C59.9,71.5 59.5,70.8 59.5,70 Z M60.6,70.3 C60.1,69.9 59.7,69.6 59.3,69.2 C59.5,69 59.8,68.8 60.1,68.5 C60.2,69.1 60.4,69.6 60.6,70.3 Z M60.8,66 C60.7,66.5 60.5,67.1 60.3,67.6 C60.3,67.6 60.3,67.7 60.2,67.7 L60.1,67.7 C59.9,66.7 59.6,65.7 59.4,64.7 C59.4,64.6 59.5,64.5 59.6,64.4 C59.7,64.7 59.8,65 59.9,65.2 C60.1,65.4 60.3,65.6 60.6,65.8 C60.7,65.8 60.9,65.9 60.8,66 Z M61,67.2 C61,67.1 60.9,67.1 61,67 C61.6,65.7 61.8,64.3 61.9,62.9 C61.9,62.7 62,62.4 62.2,62.3 C62.3,62.2 62.5,62.1 62.6,62.1 L62.7,62.2 C62.6,62.5 62.5,62.7 62.4,63 C61.9,63.8 61.8,64.8 61.8,65.7 C61.8,65.9 61.9,66.1 62,66.3 C61.7,66.5 61.3,66.8 61,67.2 Z M62.8,64.9 C62.5,65.2 62.5,65.3 62.9,65.6 C62.7,65.7 62.5,65.9 62.3,66 C62.2,65.8 62.1,65.6 62.2,65.3 C62.2,64.5 62.4,63.8 62.8,63.1 C62.9,62.9 63,62.8 63,62.6 C63.5,63.3 63.5,64.3 62.8,64.9 Z M64.6,64.4 L64.6,64.4 L64.6,64.4 Z M68.1,63.1 C67.9,63.4 67.8,63.6 67.6,63.7 C67.1,64.3 66.5,64.7 65.8,64.9 C65.3,65 65,65.2 64.7,64.7 C64.7,64.7 64.7,64.7 64.6,64.7 L64.6,64.7 C64.6,64.8 64.6,64.9 64.5,65 L64.5,64.5 C64.6,64.4 64.7,64.4 64.8,64.3 C65.1,64.1 65.4,63.8 65.7,63.6 C66.5,63.2 67.3,63.1 68.1,63.1 Z M68.8,54.3 C68.8,55.3 68.9,56.4 68.9,57.4 C68.5,56.4 68.6,55.4 68.8,54.3 Z M71,56.8 C71.4,56.5 71.8,55.8 72.3,55.7 C72.5,55.6 72.9,55.7 72.9,56 C72.9,56.1 72.9,56.2 72.8,56.3 C72.6,56.7 71.9,57 71.5,57.2 C71.1,57.4 70.7,57.4 70.2,57.5 C70.2,57.4 70.1,57.4 70.1,57.3 C70.5,57.1 70.8,56.9 71,56.8 Z M73.6,45 C73.5,45 73.3,45 73.3,44.9 C73.2,44.8 73.1,44.6 73,44.5 C72.8,44.2 72.9,43.9 73.3,43.7 C73.8,43.5 74.3,43.5 74.8,43.7 C75.4,44 76,43.9 76.6,43.7 C76.9,43.6 77.2,43.6 77.6,43.5 C77.5,44.8 78.4,45.7 78.6,46.8 C77.9,47 77.5,46.9 77,46.1 C76.7,45.6 76.3,45.1 75.8,44.9 C75,44.7 74.3,44.4 73.6,45 Z M79.1,51.7 C79,51.8 79,51.8 78.9,51.8 C78,52.1 77.1,52.3 76.1,52 L76,52 C76,52 76,52 76,51.9 C76.4,51.9 76.7,51.9 77,51.8 C77.3,51.7 77.6,51.4 77.8,51.2 C77.8,51.2 77.8,51.1 77.7,51.1 C77.6,51.1 77.4,51.1 77.3,51.2 C76.9,51.4 76.5,51.5 76.1,51.7 C75.9,51.8 75.7,51.9 75.4,51.9 C75,51.9 74.6,51.9 74.3,51.8 C74.1,51.8 74,51.6 73.8,51.5 L73.8,51.4 C74.3,51.3 74.7,51.3 75.2,51.2 C75.5,51.1 75.9,51.1 76.2,51 C76.5,51 76.7,50.9 77,50.9 C77.3,50.8 77.6,50.7 77.8,50.6 C77.8,50.6 77.9,50.5 77.9,50.4 L77.7,50.4 C76.8,50.5 75.9,50.7 75.1,50.8 C74.8,50.8 74.5,50.9 74.1,51 C74.2,50.8 74.3,50.6 74.4,50.4 C74.7,50 75.1,49.6 75.4,49.2 C75.5,49.1 75.4,49 75.5,48.8 C75.4,48.8 75.2,48.9 75.1,49 C74.8,49.4 74.6,49.8 74.3,50.2 L74.2,50.3 L74.2,50.1 C74.5,49.2 74.3,48.2 74.1,47.3 C74,46.9 73.8,46.4 73.7,46 C73.6,45.7 73.9,45.4 74.3,45.4 C75.2,45.4 75.8,45.7 76.3,46.5 C76.4,46.7 76.6,46.9 76.8,47.1 C77.1,47.4 77.5,47.7 78,47.6 C78.4,47.5 78.7,47.7 78.9,48.1 C79.2,48.6 79.6,49 80.3,48.9 C80.3,49.8 80,50.9 79.1,51.7 Z"/>
    <path fill="#000" d="M40.5377 56.7369C40.5737 56.5929 40.6697 56.4969 40.8137 56.4969 40.9457 56.4969 41.0657 56.6409 41.0297 56.7609 40.7417 57.9849 40.4297 59.2329 40.0697 60.4209 39.9857 60.7089 39.8177 61.1529 40.1657 60.6849 41.1497 59.3649 43.0697 56.9649 44.4617 56.1609L44.5577 56.1129C46.2017 55.2489 45.5057 57.6489 45.2897 58.3809 44.5817 60.6849 43.7057 63.0249 42.8537 65.2689 42.6377 65.8449 42.4097 66.4089 42.1937 66.9849 42.1577 67.0449 42.1337 67.1169 42.1097 67.1889 42.0977 67.2249 41.9177 67.6209 42.0617 67.4169 42.8177 66.2529 43.4897 65.1849 44.3777 64.1049 45.0497 63.2889 46.9697 61.2129 48.0017 61.2249L48.1457 61.2489C48.9497 61.4169 48.4577 63.0249 48.3017 63.5289 47.9297 64.7409 47.4497 65.9409 47.0417 67.1649 45.6737 71.2569 47.9777 68.9889 50.4977 67.1529 51.2537 66.6129 51.7697 66.1689 52.3337 65.6529 52.3937 65.5809 52.4777 65.4969 52.5617 65.4249 52.9457 65.1369 53.1857 65.5329 52.8137 65.8809 52.3457 66.3129 51.9497 66.7089 51.2777 67.1769 48.8297 68.9169 47.3417 70.2609 46.5617 69.8409 46.1657 69.6369 45.9737 68.9529 46.5737 67.0929 47.1497 65.3529 47.8097 63.4689 47.9177 63.0489 48.1097 62.2929 48.4337 61.2369 47.2097 62.0649 45.3257 63.3489 43.5617 65.8449 42.3857 67.7769 42.1817 68.1129 41.5097 69.4569 41.1977 69.4689 40.7777 69.4929 41.2577 68.1009 41.3297 67.9089 42.2897 65.1969 43.3937 62.5329 44.3177 59.7969 44.4857 59.2929 45.3017 56.9769 45.0857 56.5689 44.8337 56.0769 43.1057 57.9489 42.9617 58.0929 42.4697 58.6209 41.9897 59.1489 41.5337 59.7009 41.3057 59.9769 41.0777 60.2649 40.8497 60.5529 40.3097 61.2609 39.6137 62.0529 39.3257 62.8929 38.8457 64.3569 38.3537 65.7849 37.8017 67.2249L37.7777 67.2849C37.6097 67.7289 37.4417 68.1729 37.2617 68.6049 37.0097 69.1929 36.3257 70.9449 35.5337 70.8249 34.8137 70.7289 35.1017 69.6129 35.2577 69.1689 35.9657 67.1889 37.0817 65.2689 38.2217 63.5049 38.5817 62.9409 38.9537 62.4969 39.1577 61.8489 39.6977 60.2169 40.1417 58.4049 40.5377 56.7369zM36.5057 69.0729C37.0697 67.8489 37.5377 66.6009 37.9937 65.3409 38.0897 65.0649 38.2937 64.5729 38.3537 64.3089 38.4617 63.8529 37.2737 66.0969 37.1297 66.3609L37.1057 66.4089C36.9257 66.7569 36.7337 67.1049 36.5537 67.4649 36.4097 67.7649 35.2937 70.0449 35.6417 70.1769 35.8937 70.2729 36.4217 69.2769 36.5057 69.0729zM72.0564 73.8536C71.9484 73.9256 71.8524 73.9376 71.7564 73.8656 71.6604 73.7936 71.5884 73.7336 71.6244 73.6016 71.6724 73.4336 71.9844 73.1936 71.8764 73.2896 72.3924 72.8456 72.8724 72.3176 73.3044 71.7896 74.2764 70.6016 75.5364 68.8616 73.9284 67.8056 72.2244 66.6896 69.7764 67.4816 68.7324 69.3536 67.4964 71.5496 68.7204 73.1336 69.8724 74.7896 70.2444 75.3416 70.5924 75.9296 70.8564 76.5416 71.0004 76.8776 71.1204 77.2256 71.2164 77.5736 71.2644 77.7416 71.2404 77.8856 71.4804 77.8136 71.5764 77.7776 71.6604 77.7416 71.7564 77.7176 72.6444 77.4416 73.6164 77.2376 74.5164 77.1296 74.6844 77.1176 74.8044 77.2376 74.8164 77.4056 74.8164 77.5616 74.6724 77.7056 74.5164 77.7176 74.0844 77.7536 73.6524 77.8256 73.2324 77.9216 72.7764 78.0176 72.3324 78.1376 71.8884 78.2696 71.8284 78.2816 71.7684 78.3056 71.7084 78.3176 71.4804 78.3896 71.3724 78.3536 71.4204 78.6296 71.4564 78.8936 71.4684 79.1336 71.4684 79.4096 71.4444 82.9976 67.7724 83.1536 67.6524 81.1856 67.5804 79.8416 68.8164 78.9656 69.9204 78.4256 70.0524 78.3656 70.1724 78.3056 70.3044 78.2576L70.3044 78.2456C70.3764 78.2216 70.4604 78.1856 70.5324 78.1496 70.5924 78.1016 70.6524 78.0536 70.6644 77.9816 70.6764 77.8736 70.6044 77.7176 70.5804 77.6096 70.3044 76.7456 69.9444 76.0616 69.4524 75.3056 69.1044 74.7656 68.7324 74.2376 68.3964 73.6856 67.5924 72.3536 67.3404 70.9016 68.0724 69.3536 69.1164 67.1456 71.9004 66.0776 73.9644 67.0856 77.1324 68.6456 73.8684 72.3056 72.0564 73.8536zM69.6924 81.7376C70.1484 81.5336 70.4604 81.2216 70.6644 80.7656 70.9164 80.1776 70.9164 79.6496 70.8684 79.0496 70.8684 78.9776 70.8684 78.9176 70.8564 78.8456 70.8564 78.6416 70.7604 78.6416 70.5924 78.7136 69.9924 79.0016 69.4164 79.2776 68.9124 79.7456 67.6404 80.9936 68.4324 82.3136 69.6924 81.7376zM76.2382894 80.3257275C75.3785495 80.868471 74.5897341 81.4521003 73.9524 82.0736 73.8204 82.2056 72.7164 83.4056 73.5684 82.9016 74.3004 82.4816 75.0084 81.8576 75.5604 81.2216 75.8117473 80.9336931 76.0474312 80.6388247 76.2382894 80.3257275L76.2382894 80.3257275zM76.5984738 79.5225812C76.7884964 79.4125681 76.980759 79.3040935 77.1740816 79.1975211 78.7987955 78.3018701 80.4983797 77.5405772 81.5724 77.1296 81.8484 77.0216 82.1484 77.3456 81.6804 77.5496 80.2659436 78.181299 78.5725401 78.9544359 77.0205736 79.8532745 76.7549671 80.0071034 76.4935033 80.164614 76.2382894 80.3257275 76.3929667 80.0719839 76.5182024 79.8062676 76.5984738 79.5225812 76.6792391 79.2371491 76.7144849 78.933525 76.6884 78.6056 76.6644 78.4136 76.6524 78.2336 76.4244 78.2336 75.9924 78.2696 75.7164 78.5456 75.3564 78.7376 75.1524 78.8336 74.7804 78.9056 74.8524 78.5576 74.9004 78.3416 75.4404 77.8376 75.6204 77.6576 75.8244 77.4656 76.4484 76.7576 76.4484 76.5056 76.4484 76.4216 75.5124 77.0336 75.1044 77.2736 74.9964 77.3336 74.9244 77.3816 74.9244 77.3816 74.8164 77.4656 74.7444 77.5016 74.5884 77.4656 74.4204 77.4176 74.4684 77.2376 74.5164 77.1296 74.7084 76.7576 76.3644 75.8096 76.7484 76.1096 77.0364 76.3376 76.9284 76.7456 76.7724 77.0216L76.7604 77.0456C76.6404 77.2496 76.4604 77.4656 76.3044 77.6456 76.2324 77.7416 76.1604 77.7776 76.2924 77.7536 76.8684 77.6816 77.0844 77.9576 77.1804 78.5096 77.2038015 78.7499971 77.2004249 78.9787023 77.1740816 79.1975211 77.1465491 79.4262178 77.0939294 79.6441152 77.0205736 79.8532745 76.768213 80.5728296 76.270437 81.1889664 75.7044 81.7856 75.3444 82.1576 73.2324 84.1976 72.7524 83.4056L72.7404 83.3696C72.6084 83.1296 72.7644 82.8296 72.8724 82.6016 73.3594674 81.6274651 74.8882462 80.5127136 76.5984738 79.5225812L76.5984738 79.5225812z"/>
  </g>
</svg>
